<svg width="96" height="96" viewBox="0 0 96 96" fill="none" xmlns="http://www.w3.org/2000/svg">
<path fill-rule="evenodd" clip-rule="evenodd" d="M9.16199 66C6.20552 61.2014 4.5 55.5499 4.5 49.5C4.5 32.103 18.603 18 36 18C47.8375 18 58.15 24.5296 63.5321 34.1836C65.7125 33.417 68.0575 33 70.5 33C82.098 33 91.5 42.402 91.5 54C91.5 58.4617 90.1086 62.5985 87.7359 66H9.16199Z" fill="#F4F4F5"/>
<path d="M64.0921 22.7561C64.2466 22.4062 64.7437 22.4174 64.8824 22.774L65.4871 24.3283L67.2401 25.0829C67.584 25.2309 67.5874 25.7204 67.2456 25.8734L65.6269 26.5975L64.9 28.2439C64.7492 28.5854 64.2678 28.5854 64.1171 28.2439L63.3901 26.5975L61.7544 25.8657C61.4152 25.714 61.4152 25.2294 61.7544 25.0777L63.3901 24.3459L64.0921 22.7561Z" fill="#E4E4E7"/>
<path d="M78.4441 46.6921C78.5599 46.4296 78.9328 46.4381 79.0368 46.7055L79.4904 47.8713L80.805 48.4371C81.063 48.5482 81.0656 48.9153 80.8092 49.03L79.5952 49.5731L79.05 50.8079C78.9369 51.064 78.5759 51.064 78.4628 50.8079L77.9176 49.5731L76.6908 49.0243C76.4364 48.9105 76.4364 48.5471 76.6908 48.4333L77.9176 47.8844L78.4441 46.6921Z" fill="#E4E4E7"/>
<path d="M14.5921 49.7561C14.7466 49.4062 15.2437 49.4174 15.3824 49.774L15.9871 51.3283L17.7401 52.0829C18.084 52.2309 18.0874 52.7204 17.7456 52.8734L16.1269 53.5975L15.4 55.2439C15.2492 55.5854 14.7678 55.5854 14.6171 55.2439L13.8901 53.5975L12.2544 52.8657C11.9152 52.714 11.9152 52.2294 12.2544 52.0777L13.8901 51.3459L14.5921 49.7561Z" fill="#E4E4E7"/>
<path d="M25.8666 33.2411C26.0118 32.9117 26.479 32.9223 26.6094 33.2579L27.0244 34.3264L28.2557 34.8573C28.5789 34.9967 28.5822 35.4575 28.2609 35.6015L27.1339 36.1065L26.6259 37.259C26.4842 37.5803 26.0318 37.5803 25.8901 37.259L25.3821 36.1065L24.2391 35.5943C23.9203 35.4514 23.9203 34.9953 24.2391 34.8525L25.3821 34.3402L25.8666 33.2411Z" fill="#E4E4E7"/>
<rect x="6" y="66" width="85.5" height="1.5" rx="0.75" fill="#F4F4F5"/>
<path fill-rule="evenodd" clip-rule="evenodd" d="M66.1519 42.8963C65.7816 42.3366 65.1552 42 64.4841 42H28.5159C27.8448 42 27.2184 42.3366 26.8481 42.8963L19.8321 53.4981C19.6155 53.8255 19.5 54.2093 19.5 54.6018V76C19.5 77.1046 20.3954 78 21.5 78H71.5C72.6046 78 73.5 77.1046 73.5 76V54.6018C73.5 54.2093 73.3845 53.8255 73.1679 53.4981L66.1519 42.8963Z" fill="#D4D4D8"/>
<path fill-rule="evenodd" clip-rule="evenodd" d="M30.0915 43.5C29.7585 43.5 29.4473 43.6657 29.2616 43.9421L23.5473 52.4421C23.1007 53.1064 23.5767 54 24.3772 54H36.0284C36.4114 59.0343 40.6176 63 45.75 63C50.8825 63 55.0886 59.0343 55.4716 54H68.6227C69.4232 54 69.8992 53.1064 69.4526 52.4421L63.7383 43.9421C63.5525 43.6657 63.2414 43.5 62.9084 43.5H45.75H30.0915Z" fill="#FAFAFA"/>
</svg>
